<?xml version="1.0" standalone="no"?>
<!DOCTYPE svg PUBLIC "-//W3C//DTD SVG 20010904//EN"
 "http://www.w3.org/TR/2001/REC-SVG-20010904/DTD/svg10.dtd">
<svg version="1.0" xmlns="http://www.w3.org/2000/svg"
 width="350.000000pt" height="350.000000pt" viewBox="0 0 350.000000 350.000000"
 preserveAspectRatio="xMidYMid meet">
<metadata>
Created by potrace 1.11, written by Peter Selinger 2001-2013
</metadata>
<g transform="translate(0.000000,350.000000) scale(0.100000,-0.100000)"
fill="#000000" stroke="none">
<path d="M360 3394 c-71 -90 -80 -107 -67 -117 107 -83 227 -183 227 -188 0
-4 -65 -87 -144 -184 l-145 -178 36 -28 35 -29 109 138 c60 75 113 138 118
140 5 2 42 -25 82 -59 41 -34 81 -66 90 -72 15 -9 15 -15 4 -48 -22 -61 -33
-177 -26 -268 l6 -84 39 -13 c66 -23 181 -33 284 -23 108 10 158 21 155 35
-25 105 -25 104 -63 104 -45 0 -64 19 -80 79 -10 37 -9 51 5 87 9 23 22 48 30
54 14 12 5 53 -59 270 -14 46 -24 85 -23 86 3 2 148 70 226 106 60 28 62 30
46 48 -14 15 -14 21 -3 39 18 29 38 34 60 15 18 -17 18 -18 -4 -41 -25 -27
-29 -28 195 76 49 22 92 41 97 41 7 0 57 -74 160 -240 112 -180 122 -194 130
-179 4 8 18 66 31 129 18 91 23 142 21 244 -1 72 -4 138 -8 148 -5 17 -27 18
-360 18 l-355 0 -52 -26 c-132 -67 -240 -157 -350 -293 -64 -79 -129 -180
-141 -219 -8 -25 -15 -23 -65 20 l-31 27 95 118 94 118 -30 28 c-20 19 -28 32
-22 40 5 7 36 46 69 87 33 41 63 81 68 88 6 9 -36 12 -198 12 l-205 0 -81
-106z m829 -138 c20 -24 -4 -58 -37 -54 -27 3 -39 25 -28 54 7 18 50 18 65 0z
m-89 -18 c0 -7 -14 -29 -30 -48 -22 -27 -32 -32 -41 -23 -9 9 -5 20 16 47 27
36 55 48 55 24z m-146 -186 c8 -13 -39 -66 -53 -58 -8 5 -6 15 9 37 22 29 35
36 44 21z m66 -216 c0 -6 -4 -17 -9 -25 -7 -11 -13 -9 -30 8 -20 20 -20 22 -4
41 17 19 19 19 30 3 7 -9 13 -22 13 -27z m-81 -22 c9 -20 8 -32 -1 -52 -19
-37 -32 -37 -73 0 -43 39 -40 63 9 76 39 11 51 7 65 -24z"/>
<path d="M2100 3454 c-18 -25 -30 -47 -28 -48 1 -2 33 -24 71 -49 l67 -47 37
57 c20 32 49 75 65 96 l30 37 -106 0 -105 0 -31 -46z"/>
<path d="M3472 3446 c2 -24 6 -42 9 -40 10 6 7 84 -3 84 -5 0 -7 -20 -6 -44z"/>
<path d="M2412 3348 c-40 -68 -83 -142 -97 -165 l-25 -41 106 -67 c99 -61 107
-64 120 -48 7 10 14 22 14 27 0 4 7 5 15 2 8 -3 21 -9 29 -12 10 -4 22 8 36
36 17 33 25 40 41 35 14 -5 23 1 37 24 9 17 21 31 26 31 4 0 30 -12 57 -27 41
-23 51 -26 58 -14 7 11 -4 23 -45 48 l-54 34 35 68 c19 38 31 71 28 75 -15 15
-32 3 -54 -39 -26 -48 -30 -51 -60 -34 -19 10 -19 12 -4 36 9 13 15 26 13 28
-6 6 -198 125 -201 125 -2 0 -35 -55 -75 -122z"/>
<path d="M7 3424 c-4 -4 -7 -19 -6 -33 l0 -26 10 24 c10 26 8 47 -4 35z"/>
<path d="M3473 3375 c0 -8 4 -12 9 -9 4 3 8 9 8 15 0 5 -4 9 -8 9 -5 0 -9 -7
-9 -15z"/>
<path d="M17 3313 c-4 -3 -7 -27 -7 -51 0 -57 10 -49 15 12 4 47 3 51 -8 39z"/>
<path d="M6 3008 c-8 -203 -6 -372 5 -389 4 -7 7 119 8 280 0 160 -1 291 -3
291 -2 0 -7 -82 -10 -182z"/>
<path d="M3476 3135 c-3 -8 -1 -15 4 -15 6 0 10 7 10 15 0 8 -2 15 -4 15 -2 0
-6 -7 -10 -15z"/>
<path d="M3470 3096 c0 -9 5 -16 10 -16 6 0 10 4 10 9 0 6 -4 13 -10 16 -5 3
-10 -1 -10 -9z"/>
<path d="M3467 2988 c-10 -148 -9 -280 2 -274 5 3 12 -2 14 -11 3 -10 5 14 6
54 0 39 -4 75 -9 78 -7 4 -7 13 0 26 12 21 12 209 0 209 -4 0 -10 -37 -13 -82z"/>
<path d="M2245 2568 c3 -183 8 -343 11 -356 3 -15 11 -22 22 -20 19 4 20 81 7
496 -7 202 -8 212 -27 212 -19 0 -19 -7 -13 -332z"/>
<path d="M3335 2632 c-16 -10 -84 -47 -150 -81 -66 -35 -214 -114 -330 -176
-237 -127 -317 -169 -630 -332 -121 -63 -266 -140 -323 -170 -57 -30 -105 -53
-108 -51 -2 2 33 66 77 142 75 129 79 139 62 151 -31 24 -74 38 -83 29 -5 -5
-49 -79 -98 -164 -145 -255 -153 -265 -221 -300 -33 -16 -62 -30 -65 -30 -2 0
-32 46 -67 103 -118 194 -242 392 -254 405 -10 12 -20 9 -54 -13 -22 -15 -41
-29 -41 -31 0 -2 26 -45 57 -96 31 -51 101 -167 156 -257 l99 -164 -23 -18
c-41 -32 -49 -25 -49 41 l0 60 -94 0 c-82 0 -95 2 -100 18 -3 9 -24 82 -47
162 -22 80 -45 160 -51 178 -10 36 -9 36 -61 21 -43 -12 -45 9 19 -213 24 -82
44 -153 44 -158 0 -4 -202 -8 -450 -8 l-450 0 0 -170 0 -170 394 -2 394 -3
-226 -119 c-125 -66 -229 -121 -231 -123 -2 -1 20 -58 49 -125 29 -68 59 -138
67 -156 l13 -32 63 31 c52 27 279 148 486 261 29 16 55 27 56 26 1 -2 23 -79
49 -173 54 -197 62 -223 152 -533 45 -152 73 -232 81 -232 8 0 29 6 47 14 l34
14 -65 224 c-36 122 -67 232 -68 243 -1 11 -8 34 -15 50 -6 17 -20 62 -30 100
-11 39 -22 80 -26 93 -5 17 -2 22 12 22 13 0 46 40 104 125 47 69 113 164 147
212 34 48 59 91 56 96 -3 5 4 15 14 22 11 8 40 44 63 80 24 36 49 65 55 65 6
0 26 -10 45 -23 l34 -24 42 24 43 24 15 -30 c9 -16 21 -33 26 -36 16 -10 120
56 120 75 0 9 5 21 11 27 8 8 8 17 0 32 -11 19 -4 24 91 72 109 55 192 99 246
131 18 11 34 19 36 17 6 -9 67 -149 86 -198 36 -92 37 -93 65 -75 l23 15 -25
57 c-13 31 -20 58 -15 60 5 1 17 8 26 15 16 12 15 19 -18 91 -20 43 -36 82
-36 86 0 7 61 42 307 177 l63 35 11 -29 c6 -15 21 -57 34 -93 12 -36 37 -103
55 -148 l32 -84 82 7 c128 10 133 12 140 48 3 18 15 174 26 347 34 495 36 530
30 530 -3 0 -18 -8 -35 -18z m-2048 -1523 c0 -63 -11 -61 -23 5 -5 33 3 53 22
56 1 0 1 -27 1 -61z"/>
<path d="M3474 2577 c2 -43 6 -81 10 -84 9 -9 6 76 -4 122 -7 33 -8 25 -6 -38z"/>
<path d="M7 2554 c-4 -4 -7 -14 -7 -23 0 -11 3 -12 11 -4 6 6 10 16 7 23 -2 6
-7 8 -11 4z"/>
<path d="M1 2494 c0 -11 3 -14 6 -6 3 7 2 16 -1 19 -3 4 -6 -2 -5 -13z"/>
<path d="M2 2440 c0 -19 2 -27 5 -17 2 9 2 25 0 35 -3 9 -5 1 -5 -18z"/>
<path d="M3477 2393 c-4 -3 -7 -22 -7 -41 0 -45 8 -38 13 11 4 39 4 41 -6 30z"/>
<path d="M0 2291 c0 -11 5 -23 10 -26 6 -4 10 5 10 19 0 14 -4 26 -10 26 -5 0
-10 -9 -10 -19z"/>
<path d="M8 2203 c-5 -77 -2 -303 5 -303 4 0 7 74 7 165 0 91 -2 165 -5 165
-3 0 -6 -12 -7 -27z"/>
<path d="M3476 2064 c1 -58 5 -108 9 -112 3 -3 5 44 4 106 -1 62 -5 112 -9
112 -4 0 -6 -48 -4 -106z"/>
<path d="M3473 1915 c0 -13 3 -22 8 -20 9 6 8 45 -2 45 -4 0 -6 -11 -6 -25z"/>
<path d="M0 1749 c0 -78 2 -140 5 -137 9 8 11 269 3 274 -4 3 -8 -59 -8 -137z"/>
<path d="M2753 1825 c-29 -13 -53 -28 -53 -34 0 -25 44 -121 56 -121 23 0 104
43 104 56 0 12 -48 124 -52 123 -2 0 -27 -11 -55 -24z"/>
<path d="M3471 1824 c0 -11 3 -14 6 -6 3 7 2 16 -1 19 -3 4 -6 -2 -5 -13z"/>
<path d="M2860 1609 l0 -52 123 7 c67 4 151 11 187 14 l65 7 -175 38 c-96 20
-181 37 -187 37 -9 0 -13 -17 -13 -51z"/>
<path d="M3396 1599 c-26 -74 -32 -100 -25 -104 9 -6 44 103 35 112 -3 3 -8 0
-10 -8z"/>
<path d="M3282 1489 c-12 -68 -10 -79 18 -79 14 0 21 12 29 50 17 77 15 90
-12 90 -21 0 -25 -7 -35 -61z"/>
<path d="M2910 1520 c0 -13 7 -20 19 -20 11 0 88 -5 171 -11 84 -6 155 -8 158
-4 14 13 -18 24 -88 30 -41 4 -104 11 -140 16 -102 14 -120 12 -120 -11z"/>
<path d="M1 1299 c0 -170 3 -227 10 -209 11 26 7 425 -4 436 -3 3 -6 -99 -6
-227z"/>
<path d="M3479 1520 c-5 -36 -3 -73 4 -77 4 -2 7 16 7 41 0 25 -2 46 -5 46 -3
0 -6 -4 -6 -10z"/>
<path d="M1768 1503 c7 -3 16 -2 19 1 4 3 -2 6 -13 5 -11 0 -14 -3 -6 -6z"/>
<path d="M2622 1441 c3 -45 11 -68 32 -95 34 -45 85 -74 97 -55 5 8 -9 28 -42
59 -47 44 -49 49 -49 98 0 46 -2 52 -21 52 -20 0 -21 -4 -17 -59z"/>
<path d="M2215 1362 l-360 -2 -85 -126 c-47 -69 -90 -133 -96 -142 -67 -102
-104 -162 -104 -166 0 -3 33 -6 73 -8 l72 -3 3 -62 c2 -35 0 -63 -3 -63 -3 0
-23 12 -45 26 -32 22 -43 24 -55 14 -11 -9 -20 -8 -44 9 -16 12 -33 21 -39 21
-5 0 -33 -34 -61 -75 l-52 -74 75 -51 c41 -27 77 -50 80 -50 3 0 18 19 33 43
61 94 74 107 94 96 17 -9 19 -22 19 -142 0 -73 3 -155 6 -183 l6 -51 62 18
c33 10 64 19 68 19 8 0 21 -39 51 -157 l24 -92 -88 -30 c-48 -17 -93 -31 -99
-31 -5 0 -10 -7 -10 -17 0 -15 21 -16 238 -11 l237 6 -109 -36 -108 -37 262
-3 c145 -1 265 0 268 3 3 2 -1 17 -7 32 -6 16 -13 45 -14 66 -2 20 -8 42 -13
47 -6 6 -43 -2 -102 -20 -50 -17 -97 -30 -102 -30 -6 0 -10 43 -10 110 l0 110
91 0 92 0 -8 295 -7 295 77 0 76 0 -6 223 c-4 122 -10 224 -14 227 -3 3 -168
4 -366 2z"/>
<path d="M3479 1348 c-1 -7 -3 -49 -5 -92 -2 -44 -5 -85 -8 -92 -3 -7 2 -18
10 -24 12 -11 14 4 14 104 0 64 -2 116 -5 116 -3 0 -6 -6 -6 -12z"/>
<path d="M2803 1173 c-25 -3 -33 -9 -33 -24 0 -10 1 -19 3 -19 1 0 40 11 87
24 l85 25 -55 -1 c-30 -1 -70 -3 -87 -5z"/>
<path d="M3080 1094 c-89 -40 -96 -41 -120 -11 -18 21 -21 21 -46 7 -15 -8
-29 -21 -32 -28 -2 -8 7 -6 28 5 31 18 31 18 52 -10 13 -18 24 -25 32 -19 6 5
43 22 81 37 71 29 92 41 84 49 -2 2 -38 -11 -79 -30z"/>
<path d="M3481 1044 c0 -11 3 -14 6 -6 3 7 2 16 -1 19 -3 4 -6 -2 -5 -13z"/>
<path d="M4 765 c0 -159 2 -223 3 -142 2 82 2 212 0 290 -1 78 -3 12 -3 -148z"/>
<path d="M3470 1010 c0 -5 5 -10 11 -10 5 0 7 5 4 10 -3 6 -8 10 -11 10 -2 0
-4 -4 -4 -10z"/>
<path d="M3476 780 c0 -55 3 -103 7 -107 4 -3 7 42 7 100 0 59 -3 107 -7 107
-5 0 -8 -45 -7 -100z"/>
<path d="M3481 644 c0 -11 3 -14 6 -6 3 7 2 16 -1 19 -3 4 -6 -2 -5 -13z"/>
<path d="M1450 499 c0 -5 5 -7 10 -4 6 3 10 8 10 11 0 2 -4 4 -10 4 -5 0 -10
-5 -10 -11z"/>
<path d="M2 390 c0 -14 2 -19 5 -12 2 6 2 18 0 25 -3 6 -5 1 -5 -13z"/>
<path d="M3477 383 c-12 -11 -8 -85 3 -78 8 5 12 85 5 85 -1 0 -5 -3 -8 -7z"/>
<path d="M3472 230 c0 -19 2 -27 5 -17 2 9 2 25 0 35 -3 9 -5 1 -5 -18z"/>
<path d="M3472 130 c0 -68 13 -71 15 -4 1 30 -2 54 -7 54 -5 0 -9 -23 -8 -50z"/>
<path d="M1 124 c0 -11 3 -14 6 -6 3 7 2 16 -1 19 -3 4 -6 -2 -5 -13z"/>
<path d="M1270 20 l-55 -19 77 0 c71 -1 76 0 71 19 -6 24 -20 24 -93 0z"/>
</g>
</svg>
